<?xml version="1.0" encoding="UTF-8" standalone="no"?>
<!DOCTYPE svg PUBLIC "-//W3C//DTD SVG 1.1//EN" "http://www.w3.org/Graphics/SVG/1.1/DTD/svg11.dtd">
<svg width="100%" height="100%" viewBox="0 0 25 25" version="1.1" xmlns="http://www.w3.org/2000/svg" xmlns:xlink="http://www.w3.org/1999/xlink" xml:space="preserve" xmlns:serif="http://www.serif.com/" style="fill-rule:evenodd;clip-rule:evenodd;stroke-linejoin:round;stroke-miterlimit:2;">
    <g transform="matrix(1,0,0,1,-604.327,-488)">
        <g id="Монтажная-область1" serif:id="Монтажная область1" transform="matrix(1,0,0,1,604.327,488)">
            <rect x="0" y="0" width="25" height="25" style="fill:none;"/>
            <g id="Time-Icon" serif:id="Time Icon" transform="matrix(1,0,0,1,-400,-2826)">
                <path d="M412.5,2850C406.149,2850 401,2844.85 401,2838.5C401,2832.15 406.149,2827 412.5,2827C418.851,2827 424,2832.15 424,2838.5C424,2844.85 418.851,2850 412.5,2850ZM412.5,2830C407.806,2830 404,2833.81 404,2838.5C404,2843.2 407.806,2847 412.5,2847C417.194,2847 421,2843.2 421,2838.5C421,2833.81 417.194,2830 412.5,2830ZM417.5,2840L412.5,2840C411.672,2840 411,2839.33 411,2838.5L411,2833.5C411,2832.67 411.672,2832 412.5,2832C413.328,2832 414,2832.67 414,2833.5L414,2837L417.5,2837C418.328,2837 419,2837.67 419,2838.5C419,2839.33 418.328,2840 417.5,2840Z" style="fill:rgb(83,101,125);"/>
            </g>
        </g>
    </g>
</svg>
