<?xml version="1.0" encoding="UTF-8" standalone="no"?>
<!DOCTYPE svg PUBLIC "-//W3C//DTD SVG 1.1//EN" "http://www.w3.org/Graphics/SVG/1.1/DTD/svg11.dtd">
<svg width="100%" height="100%" viewBox="0 0 25 25" version="1.1" xmlns="http://www.w3.org/2000/svg" xmlns:xlink="http://www.w3.org/1999/xlink" xml:space="preserve" xmlns:serif="http://www.serif.com/" style="fill-rule:evenodd;clip-rule:evenodd;stroke-linejoin:round;stroke-miterlimit:2;">
    <g transform="matrix(1,0,0,1,-659.244,-488)">
        <g id="Монтажная-область1" serif:id="Монтажная область1" transform="matrix(1,0,0,1,659.244,488)">
            <rect x="0" y="0" width="25" height="25" style="fill:none;"/>
            <g id="Align-Justify-Icon" serif:id="Align Justify Icon" transform="matrix(0.723171,0,0,1,-361.984,-3595)">
                <path d="M532.5,3612L511.5,3612C510.672,3612 510,3611.33 510,3610.5C510,3609.67 510.672,3609 511.5,3609L532.5,3609C533.328,3609 534,3609.67 534,3610.5C534,3611.33 533.328,3612 532.5,3612ZM532.5,3606L511.5,3606C510.672,3606 510,3605.33 510,3604.5C510,3603.67 510.672,3603 511.5,3603L532.5,3603C533.328,3603 534,3603.67 534,3604.5C534,3605.33 533.328,3606 532.5,3606ZM532.5,3600L511.5,3600C510.672,3600 510,3599.33 510,3598.5C510,3597.67 510.672,3597 511.5,3597L532.5,3597C533.328,3597 534,3597.67 534,3598.5C534,3599.33 533.328,3600 532.5,3600ZM511.5,3615L532.5,3615C533.328,3615 534,3615.67 534,3616.5C534,3617.33 533.328,3618 532.5,3618L511.5,3618C510.672,3618 510,3617.33 510,3616.5C510,3615.67 510.672,3615 511.5,3615Z" style="fill:rgb(83,101,125);"/>
            </g>
            <g id="Align-Justify-Icon1" serif:id="Align Justify Icon" transform="matrix(0.723171,0,0,1,-368.007,-3595)">
                <path d="M514.036,3612L511.5,3612C510.672,3612 510,3611.33 510,3610.5C510,3609.67 510.672,3609 511.5,3609L514.036,3609C514.865,3609 515.536,3609.67 515.536,3610.5C515.536,3611.33 514.865,3612 514.036,3612ZM514.036,3606L511.5,3606C510.672,3606 510,3605.33 510,3604.5C510,3603.67 510.672,3603 511.5,3603L514.036,3603C514.865,3603 515.536,3603.67 515.536,3604.5C515.536,3605.33 514.865,3606 514.036,3606ZM514.036,3600L511.5,3600C510.672,3600 510,3599.33 510,3598.5C510,3597.67 510.672,3597 511.5,3597L514.036,3597C514.865,3597 515.536,3597.67 515.536,3598.5C515.536,3599.33 514.865,3600 514.036,3600ZM511.5,3615L514.036,3615C514.865,3615 515.536,3615.67 515.536,3616.5C515.536,3617.33 514.865,3618 514.036,3618L511.5,3618C510.672,3618 510,3617.33 510,3616.5C510,3615.67 510.672,3615 511.5,3615Z" style="fill:rgb(83,101,125);"/>
            </g>
        </g>
    </g>
</svg>
