<?xml version="1.0" encoding="UTF-8" standalone="no"?><!DOCTYPE svg PUBLIC "-//W3C//DTD SVG 1.1//EN" "http://www.w3.org/Graphics/SVG/1.1/DTD/svg11.dtd"><svg width="100%" height="100%" viewBox="0 0 512 512" version="1.1" xmlns="http://www.w3.org/2000/svg" xmlns:xlink="http://www.w3.org/1999/xlink" xml:space="preserve" xmlns:serif="http://www.serif.com/" style="fill-rule:evenodd;clip-rule:evenodd;stroke-linejoin:round;stroke-miterlimit:2;"><g id="Delete_active"><path d="M93.897,14.265c-7.873,-7.873 -20.657,-7.873 -28.53,0l-42.687,42.688c-7.873,7.873 -7.873,20.657 -0,28.53l403.837,403.837c7.873,7.873 20.657,7.873 28.53,0l42.688,-42.687c7.873,-7.873 7.873,-20.657 -0,-28.53l-403.838,-403.838Z" style="fill:#6d1717;"/><path d="M497.735,85.483c7.873,-7.873 7.873,-20.657 -0,-28.53l-42.688,-42.688c-7.873,-7.873 -20.657,-7.873 -28.53,0l-403.837,403.838c-7.873,7.873 -7.873,20.657 -0,28.53l42.687,42.687c7.873,7.873 20.657,7.873 28.53,0l403.838,-403.837Z" style="fill:#991616;"/></g></svg>