<?xml version="1.0" encoding="UTF-8" standalone="no"?><!DOCTYPE svg PUBLIC "-//W3C//DTD SVG 1.1//EN" "http://www.w3.org/Graphics/SVG/1.1/DTD/svg11.dtd"><svg width="100%" height="100%" viewBox="0 0 512 512" version="1.1" xmlns="http://www.w3.org/2000/svg" xmlns:xlink="http://www.w3.org/1999/xlink" xml:space="preserve" xmlns:serif="http://www.serif.com/" style="fill-rule:evenodd;clip-rule:evenodd;stroke-linejoin:round;stroke-miterlimit:2;"><g id="Download_active"><path d="M502.818,438.255c0,-9.76 -7.924,-17.684 -17.684,-17.684l-458.268,0c-9.76,0 -17.684,7.924 -17.684,17.684l-0,35.368c-0,9.76 7.924,17.684 17.684,17.684l458.268,-0c9.76,-0 17.684,-7.924 17.684,-17.684l0,-35.368Z" style="fill:#084270;"/><path d="M306.941,23.97c0,-13.229 -10.741,-23.97 -23.97,-23.97l-53.942,0c-13.229,0 -23.97,10.741 -23.97,23.97l-0,280.903c-0,13.23 10.741,23.971 23.97,23.971l53.942,-0c13.229,-0 23.97,-10.741 23.97,-23.971l0,-280.903Z" style="fill:#0081d5;"/><path d="M256,404.018l117.301,-115.94l-234.602,0l117.301,115.94Z" style="fill:#0081d5;"/></g></svg>