<?xml version="1.0" encoding="UTF-8" standalone="no"?><!DOCTYPE svg PUBLIC "-//W3C//DTD SVG 1.1//EN" "http://www.w3.org/Graphics/SVG/1.1/DTD/svg11.dtd"><svg width="100%" height="100%" viewBox="0 0 512 512" version="1.1" xmlns="http://www.w3.org/2000/svg" xmlns:xlink="http://www.w3.org/1999/xlink" xml:space="preserve" xmlns:serif="http://www.serif.com/" style="fill-rule:evenodd;clip-rule:evenodd;stroke-linejoin:round;stroke-miterlimit:2;"><path id="Post-Icon" serif:id="Post Icon" d="M479.925,512l-447.464,0c-17.652,0 -31.961,-14.307 -31.961,-31.963l0,-447.465c0,-17.65 14.309,-31.957 31.961,-31.957l351.018,0l-63.888,63.92l-255.168,-0l-0,383.546l383.541,-0l-0,-255.247l63.923,-63.955l-0,351.158c-0,17.656 -14.31,31.963 -31.962,31.963Z" style="fill:url(#_Linear1);"/><path id="Post-Icon1" serif:id="Post Icon" d="M486.25,94.442l-68.361,-68.379l11.395,-11.407c18.875,-18.878 49.481,-18.878 68.358,0c18.875,18.885 18.875,49.507 -0,68.391l-11.392,11.395Zm-336.576,268.383l22.786,-91.186l11.39,-11.4l68.361,68.391l-11.393,11.4l-91.144,22.795Zm313.793,-245.582l-188.471,188.592l-68.361,-68.391l188.472,-188.586l68.36,68.385Z" style="fill:url(#_Linear2);"/><defs><linearGradient id="_Linear1" x1="0" y1="0" x2="1" y2="0" gradientUnits="userSpaceOnUse" gradientTransform="matrix(-532.695,532.695,-532.695,-532.695,522.541,-10.0989)"><stop offset="0" style="stop-color:#2bd563;stop-opacity:1"/><stop offset="0.16" style="stop-color:#178656;stop-opacity:1"/><stop offset="0.35" style="stop-color:#06444c;stop-opacity:1"/><stop offset="1" style="stop-color:#002c48;stop-opacity:1"/></linearGradient><linearGradient id="_Linear2" x1="0" y1="0" x2="1" y2="0" gradientUnits="userSpaceOnUse" gradientTransform="matrix(-459.329,455.5,-455.5,-459.329,522.541,-10.0989)"><stop offset="0" style="stop-color:#2bd563;stop-opacity:1"/><stop offset="1" style="stop-color:#0082d5;stop-opacity:1"/></linearGradient></defs></svg>