<?xml version="1.0" encoding="UTF-8" standalone="no"?><!DOCTYPE svg PUBLIC "-//W3C//DTD SVG 1.1//EN" "http://www.w3.org/Graphics/SVG/1.1/DTD/svg11.dtd"><svg width="100%" height="100%" viewBox="0 0 512 512" version="1.1" xmlns="http://www.w3.org/2000/svg" xmlns:xlink="http://www.w3.org/1999/xlink" xml:space="preserve" xmlns:serif="http://www.serif.com/" style="fill-rule:evenodd;clip-rule:evenodd;stroke-linejoin:round;stroke-miterlimit:2;"><path id="Exit" d="M63.053,476.51l238.884,0c15.226,0 27.565,-12.338 27.565,-27.57l0,-36.744c0,-15.242 -12.339,-27.575 -27.565,-27.575c-12.432,-0 -11.22,12.333 -11.22,27.575l0,24.747l-214.886,0l-0,-368.116l214.886,-0l0,30.977c0,15.216 -0.336,27.565 11.22,27.565c15.226,-0 27.565,-12.349 27.565,-27.565l0,-36.755c0,-15.226 -12.339,-27.559 -27.565,-27.559l-238.884,-0c-15.225,-0 -27.564,12.333 -27.564,27.559l0,385.891c0,15.232 12.339,27.57 27.564,27.57Zm350.588,-239.132l-157.641,0c-10.15,0 -18.378,8.222 -18.378,18.375c0,10.158 8.228,18.39 18.378,18.39l157.641,0l-60.155,60.178c-7.261,7.264 -7.261,19.052 -0,26.322c7.267,7.264 19.046,7.264 26.309,-0l91.299,-91.345c3.731,-3.723 5.512,-8.634 5.413,-13.525c-0,-0.01 0.003,-0.01 0.003,-0.02l-0.003,-0.015c0.099,-4.891 -1.682,-9.807 -5.413,-13.525l-91.299,-91.334c-7.263,-7.275 -19.042,-7.275 -26.309,-0c-7.261,7.259 -7.261,19.052 -0,26.306l60.155,60.193Z"/></svg>