<?xml version="1.0" encoding="UTF-8" standalone="no"?><!DOCTYPE svg PUBLIC "-//W3C//DTD SVG 1.1//EN" "http://www.w3.org/Graphics/SVG/1.1/DTD/svg11.dtd"><svg width="100%" height="100%" viewBox="0 0 500 500" version="1.1" xmlns="http://www.w3.org/2000/svg" xmlns:xlink="http://www.w3.org/1999/xlink" xml:space="preserve" xmlns:serif="http://www.serif.com/" style="fill-rule:evenodd;clip-rule:evenodd;stroke-linecap:round;stroke-linejoin:round;stroke-miterlimit:1.5;"><g id="Все"><path d="M217.737,85.461c0,-25.34 -20.572,-45.912 -45.912,-45.912l-91.824,-0c-25.339,-0 -45.912,20.572 -45.912,45.912l0,91.824c0,25.34 20.573,45.912 45.912,45.912l91.824,0c25.34,0 45.912,-20.572 45.912,-45.912l0,-91.824Z" style="fill:none;stroke:#000;stroke-width:21.24px;"/><path d="M465.911,85.461c-0,-25.34 -20.573,-45.912 -45.912,-45.912l-91.824,-0c-25.34,-0 -45.912,20.572 -45.912,45.912l-0,91.824c-0,25.34 20.572,45.912 45.912,45.912l91.824,0c25.339,0 45.912,-20.572 45.912,-45.912l-0,-91.824Z" style="fill:none;stroke:#000;stroke-width:21.24px;"/><path d="M217.737,322.715c0,-25.34 -20.572,-45.912 -45.912,-45.912l-91.824,-0c-25.339,-0 -45.912,20.572 -45.912,45.912l0,91.824c0,25.34 20.573,45.912 45.912,45.912l91.824,0c25.34,0 45.912,-20.572 45.912,-45.912l0,-91.824Z" style="fill:none;stroke:#000;stroke-width:21.24px;"/><path d="M465.911,322.715c-0,-25.34 -20.573,-45.912 -45.912,-45.912l-91.824,-0c-25.34,-0 -45.912,20.572 -45.912,45.912l-0,91.824c-0,25.34 20.572,45.912 45.912,45.912l91.824,0c25.339,0 45.912,-20.572 45.912,-45.912l-0,-91.824Z" style="fill:none;stroke:#000;stroke-width:21.24px;"/></g></svg>