<?xml version="1.0" encoding="UTF-8" standalone="no"?><!DOCTYPE svg PUBLIC "-//W3C//DTD SVG 1.1//EN" "http://www.w3.org/Graphics/SVG/1.1/DTD/svg11.dtd"><svg width="100%" height="100%" viewBox="0 0 512 512" version="1.1" xmlns="http://www.w3.org/2000/svg" xmlns:xlink="http://www.w3.org/1999/xlink" xml:space="preserve" xmlns:serif="http://www.serif.com/" style="fill-rule:evenodd;clip-rule:evenodd;stroke-linejoin:round;stroke-miterlimit:2;"><path id="Профиль" d="M412.308,482.852c-35.493,5.912 -77.23,7.488 -156.308,7.488c-79.073,-0 -120.815,-1.576 -156.304,-7.488c-49.708,-8.278 -78.048,-26.003 -78.048,-55.78c-0,-39.337 50.618,-94.197 120.997,-125.944c28.444,43.127 68.605,72.049 113.355,72.049c44.748,-0 84.911,-28.922 113.355,-72.049c70.377,31.747 120.997,86.607 120.997,125.944c0,29.777 -28.338,47.502 -78.044,55.78Zm-12.047,-11.09c-32.756,5.457 -71.276,6.911 -144.259,6.911c-72.978,-0 -111.502,-1.454 -144.256,-6.911c-45.876,-7.639 -72.031,-17.455 -72.031,-44.937c-0,-36.305 34.157,-76.929 99.111,-106.229c26.251,39.803 75.876,68.42 117.176,68.42c41.299,-0 90.926,-30.156 117.177,-69.959c64.952,29.3 99.111,71.463 99.111,107.768c0,27.482 -26.154,37.298 -72.029,44.937Zm-144.261,-137.647c-64.872,0 -117.174,-86.114 -117.174,-174.6c-0,-82.389 48.915,-137.855 117.174,-137.855c68.259,0 117.179,55.466 117.179,137.855c0,88.486 -52.307,174.6 -117.179,174.6Zm-0.002,-23.526c-55.103,0 -99.529,-73.146 -99.529,-148.307c-0,-69.982 41.549,-117.096 99.529,-117.096c57.98,0 99.533,47.114 99.533,117.096c0,75.161 -44.43,148.307 -99.533,148.307Z" style="fill:#0081d5;"/></svg>