<?xml version="1.0" encoding="UTF-8" standalone="no"?><!DOCTYPE svg PUBLIC "-//W3C//DTD SVG 1.1//EN" "http://www.w3.org/Graphics/SVG/1.1/DTD/svg11.dtd"><svg width="100%" height="100%" viewBox="0 0 500 500" version="1.1" xmlns="http://www.w3.org/2000/svg" xmlns:xlink="http://www.w3.org/1999/xlink" xml:space="preserve" xmlns:serif="http://www.serif.com/" style="fill-rule:evenodd;clip-rule:evenodd;stroke-linejoin:round;stroke-miterlimit:2;"><path id="Аудио-Select" serif:id="Аудио Select" d="M356.018,94.038l-0,-14.572l117.42,0l-0,14.572l-117.42,0Zm-28.088,70.748l-0,-14.572l145.508,0l-0,14.572l-145.508,-0Zm43.082,72.648l-0,-14.572l102.426,0l-0,14.572l-102.426,0Zm30.2,72.649l-0,-14.572l72.226,-0l-0,14.572l-72.226,-0Zm-30.2,72.859l-0,-15.205l102.426,-0l-0,15.205l-102.426,0Zm-184.581,-288.904l-117.42,0l-0,56.176l87.431,0l0,14.572l-87.431,-0l-0,58.076l59.766,0l-0,14.572l-59.766,0l-0,58.077l57.654,-0l-0,14.572l-57.654,-0l-0,57.654l74.76,-0l0,15.205l-117.209,0l0,-303.476l159.869,0l-0,14.572Zm161.454,170.428c3.238,6.195 5.632,12.425 7.181,18.69c1.548,6.266 2.323,12.496 2.323,18.69c-0,8.026 -1.232,15.734 -3.696,23.125c-2.464,7.392 -6.054,14.15 -10.771,20.274c-4.716,6.125 -10.453,11.475 -17.211,16.051c-6.758,4.575 -14.432,7.99 -23.02,10.242l7.181,37.38c0.281,1.971 0.528,3.837 0.739,5.597c0.211,1.76 0.316,3.625 0.316,5.596c0,6.617 -1.055,13.023 -3.167,19.218c-2.112,6.195 -5.174,11.721 -9.187,16.578c-4.013,4.858 -8.87,8.87 -14.572,12.038c-5.702,3.168 -12.143,5.104 -19.323,5.808c-0.704,0.141 -1.338,0.211 -1.901,0.211c-0.563,-0 -1.197,-0 -1.901,-0c-5.491,-0 -11.017,-0.95 -16.578,-2.851c-5.561,-1.901 -10.313,-4.47 -14.255,-7.708c-5.913,-3.661 -10.665,-8.765 -14.255,-15.311c-3.591,-6.547 -5.386,-13.2 -5.386,-19.958c0,-6.054 1.725,-11.439 5.174,-16.155c3.45,-4.717 9.117,-7.638 17.001,-8.765c0.704,-0.141 1.443,-0.246 2.218,-0.316c0.774,-0.071 1.513,-0.106 2.217,-0.106c3.942,-0 7.532,0.809 10.771,2.429c3.238,1.619 6.018,3.766 8.341,6.441c2.323,2.675 4.083,5.667 5.28,8.975c1.197,3.309 1.795,6.723 1.795,10.243c0,4.646 -1.197,9.151 -3.59,13.516c-2.393,4.364 -6.195,7.743 -11.404,10.137c1.971,0.704 3.872,1.161 5.702,1.372c1.83,0.212 3.731,0.317 5.702,0.317c4.365,0 8.588,-0.739 12.671,-2.217c4.083,-1.479 7.744,-3.59 10.982,-6.336c3.238,-2.745 5.843,-6.054 7.814,-9.926c1.971,-3.871 3.097,-8.271 3.379,-13.199l-0,-2.112c-0,-1.689 -0.07,-4.012 -0.211,-6.969c-0.141,-2.956 -0.634,-6.054 -1.479,-9.292l-6.124,-31.678c-3.942,0.985 -8.94,1.478 -14.994,1.478c-6.899,0 -14.502,-0.774 -22.809,-2.323c-8.306,-1.549 -16.683,-3.977 -25.131,-7.286c-8.447,-3.308 -16.719,-7.462 -24.814,-12.46c-8.096,-4.998 -15.347,-10.911 -21.753,-17.74c-6.406,-6.828 -11.65,-14.677 -15.733,-23.547c-4.083,-8.87 -6.476,-18.725 -7.18,-29.566c-0.141,-1.408 -0.212,-2.816 -0.212,-4.224l0,-4.224c0,-13.093 1.831,-26.081 5.491,-38.964c3.661,-12.882 9.504,-24.744 17.529,-35.585c4.646,-6.054 9.468,-11.65 14.466,-16.789c4.998,-5.139 10.243,-9.926 15.734,-14.361c5.49,-4.435 11.228,-8.553 17.211,-12.354c5.984,-3.802 12.284,-7.462 18.902,-10.982c-3.098,-16.05 -5.562,-28.862 -7.392,-38.436c-1.83,-9.574 -3.203,-17.036 -4.118,-22.386c-0.915,-5.35 -1.478,-9.257 -1.69,-11.721c-0.211,-2.464 -0.316,-4.611 -0.316,-6.441c-0,-6.758 1.091,-13.199 3.273,-19.324c2.182,-6.124 6.16,-11.157 11.932,-15.1c3.098,-2.111 6.301,-3.66 9.609,-4.646c3.309,-0.985 6.582,-1.478 9.82,-1.478c6.899,0 13.376,1.901 19.43,5.702c6.054,3.801 10.911,9.011 14.571,15.628c2.675,4.787 4.576,9.679 5.703,14.677c1.126,4.999 1.689,10.032 1.689,15.1c0,8.166 -1.302,16.367 -3.907,24.604c-2.605,8.236 -5.984,16.155 -10.137,23.758c-4.153,7.603 -8.835,14.818 -14.044,21.647c-5.209,6.828 -10.418,12.988 -15.628,18.479l12.038,59.766c1.267,-0.141 2.534,-0.211 3.801,-0.211l3.59,-0c10.419,-0 19.465,1.548 27.138,4.646c7.673,3.097 14.185,6.758 19.535,10.981c5.35,4.224 9.609,8.553 12.777,12.988c3.167,4.435 5.455,7.99 6.863,10.665Zm-80.04,-205.907c-4.505,-0 -8.06,0.95 -10.665,2.851c-2.604,1.901 -4.575,4.118 -5.913,6.652c-1.337,2.534 -2.182,5.104 -2.534,7.709c-0.352,2.604 -0.528,4.611 -0.528,6.018c-0,10.278 0.985,19.922 2.957,28.933c1.971,9.011 3.731,17.81 5.279,26.398c5.35,-3.097 10.032,-6.722 14.044,-10.876c4.013,-4.153 7.357,-8.553 10.032,-13.199c2.675,-4.646 4.681,-9.363 6.018,-14.149c1.338,-4.787 2.007,-9.293 2.007,-13.516c-0,-3.239 -0.317,-6.442 -0.951,-9.609c-0.633,-3.168 -1.724,-6.019 -3.273,-8.553c-1.549,-2.535 -3.661,-4.611 -6.336,-6.231c-2.675,-1.619 -6.054,-2.428 -10.137,-2.428Zm16.051,301.997l-18.163,-96.723c-5.35,1.267 -10.031,3.449 -14.044,6.547c-4.012,3.097 -7.356,6.687 -10.031,10.77c-2.675,4.083 -4.681,8.553 -6.019,13.41c-1.337,4.858 -2.006,9.75 -2.006,14.678c-0,1.83 0.106,3.661 0.317,5.491c0.211,1.83 0.457,3.59 0.739,5.28c-3.801,-1.69 -7.18,-3.943 -10.137,-6.758c-2.534,-2.394 -4.822,-5.632 -6.864,-9.715c-2.041,-4.083 -3.062,-9.222 -3.062,-15.417c0,-3.238 0.352,-6.652 1.056,-10.242c0.704,-3.59 1.83,-7.568 3.379,-11.932c1.549,-3.943 3.731,-7.814 6.547,-11.616c2.816,-3.801 6.054,-7.286 9.714,-10.453c3.661,-3.168 7.568,-6.019 11.721,-8.554c4.154,-2.534 8.342,-4.575 12.566,-6.124c-1.549,-8.307 -3.027,-15.909 -4.435,-22.808c-0.563,-2.957 -1.126,-5.913 -1.689,-8.87l-3.063,-14.994c-0.352,-1.971 -0.598,-3.379 -0.739,-4.224c-9.855,9.151 -19.64,18.408 -29.355,27.771c-9.714,9.363 -19.077,19.253 -28.088,29.672c-2.956,3.52 -5.807,7.18 -8.553,10.982c-2.745,3.801 -5.209,7.778 -7.391,11.932c-2.183,4.153 -3.907,8.482 -5.174,12.988c-1.268,4.505 -1.901,9.081 -1.901,13.727c-0,9.011 1.513,17.141 4.54,24.392c3.027,7.251 7.075,13.692 12.144,19.324c5.068,5.631 10.946,10.524 17.634,14.677c6.687,4.153 13.727,7.568 21.119,10.243c7.391,2.675 14.853,4.646 22.385,5.913c7.533,1.267 14.678,1.901 21.436,1.901c5.209,-0 10.348,-0.423 15.417,-1.268Zm-2.957,-98.202l18.584,93.979c6.336,-1.69 11.897,-4.33 16.684,-7.92c4.787,-3.59 8.764,-7.708 11.932,-12.354c3.168,-4.646 5.526,-9.609 7.075,-14.889c1.549,-5.28 2.323,-10.524 2.323,-15.733c0,-4.787 -0.704,-9.433 -2.112,-13.939c-1.408,-4.505 -3.66,-8.518 -6.758,-12.037c-2.534,-3.52 -5.702,-6.371 -9.503,-8.553c-3.802,-2.183 -7.849,-3.907 -12.143,-5.175c-4.295,-1.267 -8.694,-2.147 -13.2,-2.639c-4.505,-0.493 -8.799,-0.74 -12.882,-0.74Z" style="fill:#0081d5;fill-rule:nonzero;"/></svg>