<?xml version="1.0" encoding="UTF-8" standalone="no"?><!DOCTYPE svg PUBLIC "-//W3C//DTD SVG 1.1//EN" "http://www.w3.org/Graphics/SVG/1.1/DTD/svg11.dtd"><svg width="100%" height="100%" viewBox="0 0 500 500" version="1.1" xmlns="http://www.w3.org/2000/svg" xmlns:xlink="http://www.w3.org/1999/xlink" xml:space="preserve" xmlns:serif="http://www.serif.com/" style="fill-rule:evenodd;clip-rule:evenodd;stroke-linejoin:round;stroke-miterlimit:2;"><path id="Рингтон-Select" serif:id="Рингтон Select" d="M144.302,106.701c3.498,3.935 6.959,8.271 10.384,13.007c3.425,4.737 6.449,9.838 9.072,15.303c2.624,5.465 4.773,11.259 6.449,17.38c1.676,6.121 2.514,12.533 2.514,19.237c0,12.68 -0.364,20.258 -1.093,22.736c-0.291,1.311 -0.838,2.514 -1.639,3.607c-0.802,1.093 -1.858,1.639 -3.17,1.639c-1.312,0 -2.514,-0.473 -3.607,-1.421c-1.093,-0.947 -1.64,-2.222 -1.64,-3.825c0,-6.996 -0.218,-13.918 -0.656,-20.768c-0.437,-6.85 -2.04,-13.408 -4.809,-19.675c-2.186,-4.955 -4.481,-9.655 -6.886,-14.1c-2.405,-4.445 -4.919,-8.308 -7.542,-11.587c-2.624,-3.279 -5.32,-5.902 -8.089,-7.87c-2.769,-1.967 -5.465,-2.951 -8.088,-2.951c-2.915,0 -5.356,0.984 -7.324,2.951c-1.967,1.968 -2.951,5.283 -2.951,9.947l-0,163.958c-0,6.121 -1.166,11.841 -3.498,17.16c-2.332,5.32 -5.501,9.984 -9.509,13.991c-4.008,4.008 -8.672,7.178 -13.991,9.51c-5.32,2.332 -11.04,3.498 -17.161,3.498c-5.976,-0 -11.623,-1.166 -16.942,-3.498c-5.32,-2.332 -9.984,-5.502 -13.992,-9.51c-4.007,-4.007 -7.177,-8.671 -9.509,-13.991c-2.332,-5.319 -3.498,-11.039 -3.498,-17.16c0,-6.122 1.166,-11.842 3.498,-17.161c2.332,-5.32 5.502,-9.984 9.509,-13.991c4.008,-4.008 8.672,-7.178 13.992,-9.51c5.319,-2.332 10.966,-3.498 16.942,-3.498c7.87,0 14.865,2.041 20.986,6.121l0.219,-3.716l-0,-65.036l-0.219,-45.362l0,-68.862c0,-1.312 0.11,-2.878 0.328,-4.7c0.219,-1.822 0.693,-3.607 1.421,-5.356c0.729,-1.749 1.786,-3.206 3.17,-4.372c1.385,-1.166 3.316,-1.749 5.793,-1.749c2.186,-0 4.081,0.51 5.684,1.53c1.603,1.02 3.024,2.295 4.263,3.826c1.239,1.53 2.295,3.17 3.17,4.918c0.874,1.749 1.749,3.352 2.623,4.81c2.478,4.664 5.757,9.728 9.838,15.193c4.08,5.465 9.4,11.914 15.958,19.347Zm187.13,-29.731c3.498,4.081 6.923,8.49 10.275,13.226c3.352,4.737 6.34,9.838 8.963,15.303c2.623,5.465 4.736,11.258 6.34,17.379c1.603,6.121 2.404,12.534 2.404,19.238c0,6.267 -0.109,11.258 -0.328,14.975c-0.218,3.716 -0.473,6.23 -0.765,7.542c-0.728,3.206 -2.332,4.809 -4.809,4.809c-3.206,0 -4.81,-1.603 -4.81,-4.809c0,-7.287 -0.328,-14.283 -0.983,-20.987c-0.656,-6.704 -2.296,-13.335 -4.919,-19.893c-2.04,-4.81 -4.263,-9.364 -6.668,-13.663c-2.404,-4.3 -4.882,-8.089 -7.432,-11.368c-2.551,-3.279 -5.211,-5.903 -7.98,-7.87c-2.769,-1.968 -5.465,-2.951 -8.088,-2.951c-2.915,-0 -5.356,0.874 -7.324,2.623c-1.967,1.749 -2.951,4.955 -2.951,9.619l0,164.613c0,6.121 -1.166,11.842 -3.498,17.161c-2.332,5.32 -5.501,9.983 -9.509,13.991c-4.008,4.008 -8.672,7.178 -13.991,9.51c-5.32,2.331 -11.04,3.497 -17.161,3.497c-6.121,0 -11.878,-1.166 -17.27,-3.497c-5.393,-2.332 -10.056,-5.502 -13.991,-9.51c-3.935,-4.008 -7.032,-8.671 -9.291,-13.991c-2.259,-5.319 -3.389,-11.04 -3.389,-17.161c0,-6.121 1.13,-11.878 3.389,-17.27c2.259,-5.392 5.356,-10.093 9.291,-14.1c3.935,-4.008 8.598,-7.142 13.991,-9.401c5.392,-2.259 11.149,-3.388 17.27,-3.388c3.789,-0 7.433,0.51 10.93,1.53c3.498,1.02 6.85,2.332 10.056,3.935l0,-182.976c0,-1.312 0.11,-2.879 0.328,-4.7c0.219,-1.822 0.693,-3.571 1.421,-5.247c0.729,-1.676 1.786,-3.097 3.17,-4.263c1.385,-1.166 3.316,-1.749 5.793,-1.749c1.895,0 3.607,0.437 5.138,1.312c1.53,0.874 2.878,2.004 4.044,3.388c1.166,1.385 2.222,2.879 3.17,4.482c0.947,1.603 1.858,3.133 2.732,4.591c1.312,3.06 2.842,5.975 4.591,8.744c1.749,2.769 3.717,5.538 5.903,8.307c2.186,2.769 4.59,5.684 7.214,8.745c2.623,3.06 5.538,6.485 8.744,10.274Zm113.459,164.614c3.498,3.934 6.922,8.27 10.274,13.007c3.352,4.736 6.34,9.837 8.963,15.303c2.624,5.465 4.737,11.221 6.34,17.27c1.603,6.048 2.405,12.351 2.405,18.909c-0,6.559 -0.037,11.696 -0.109,15.412c-0.073,3.717 -0.401,6.158 -0.984,7.324c-0.292,1.312 -0.838,2.514 -1.64,3.607c-0.801,1.093 -1.858,1.64 -3.17,1.64c-1.311,-0 -2.441,-0.474 -3.388,-1.421c-0.947,-0.948 -1.421,-2.223 -1.421,-3.826c-0,-6.996 -0.328,-13.918 -0.984,-20.768c-0.656,-6.85 -2.295,-13.408 -4.919,-19.675c-2.04,-4.809 -4.262,-9.4 -6.667,-13.772c-2.405,-4.373 -4.882,-8.271 -7.433,-11.696c-2.55,-3.425 -5.21,-6.121 -7.979,-8.089c-2.769,-1.967 -5.465,-2.951 -8.089,-2.951c-2.915,0 -5.356,0.984 -7.323,2.951c-1.968,1.968 -2.951,5.283 -2.951,9.947l-0,163.958c-0,6.121 -1.166,11.877 -3.498,17.27c-2.332,5.392 -5.502,10.092 -9.51,14.1c-4.008,4.008 -8.671,7.141 -13.991,9.4c-5.319,2.259 -11.04,3.389 -17.161,3.389c-5.975,-0 -11.622,-1.13 -16.942,-3.389c-5.319,-2.259 -9.983,-5.392 -13.991,-9.4c-4.008,-4.008 -7.178,-8.708 -9.509,-14.1c-2.332,-5.393 -3.498,-11.149 -3.498,-17.27c-0,-6.121 1.166,-11.842 3.498,-17.161c2.331,-5.32 5.501,-9.983 9.509,-13.991c4.008,-4.008 8.672,-7.178 13.991,-9.51c5.32,-2.332 10.967,-3.498 16.942,-3.498c3.79,0 7.506,0.62 11.15,1.859c3.643,1.238 6.922,2.659 9.837,4.262l0.219,-3.716l-0,-65.036l-0.219,-45.362l-0,-68.862c-0,-1.312 0.109,-2.878 0.328,-4.7c0.218,-1.822 0.692,-3.607 1.421,-5.356c0.729,-1.749 1.822,-3.206 3.279,-4.372c1.457,-1.166 3.425,-1.749 5.902,-1.749c1.749,-0 3.352,0.437 4.81,1.312c1.457,0.874 2.769,2.003 3.935,3.388c1.166,1.384 2.222,2.878 3.17,4.481c0.947,1.604 1.858,3.134 2.732,4.591c2.915,5.247 6.449,10.712 10.603,16.396c4.154,5.684 9.509,12.315 16.068,19.894Z" style="fill:#0081d5;fill-rule:nonzero;"/></svg>