<?xml version="1.0" encoding="UTF-8" standalone="no"?><!DOCTYPE svg PUBLIC "-//W3C//DTD SVG 1.1//EN" "http://www.w3.org/Graphics/SVG/1.1/DTD/svg11.dtd"><svg width="100%" height="100%" viewBox="0 0 512 512" version="1.1" xmlns="http://www.w3.org/2000/svg" xmlns:xlink="http://www.w3.org/1999/xlink" xml:space="preserve" xmlns:serif="http://www.serif.com/" style="fill-rule:evenodd;clip-rule:evenodd;stroke-linejoin:round;stroke-miterlimit:2;"><g id="UserList"><rect x="216.29" y="45.186" width="260.843" height="22.915" style="fill:#0d0d0d;"/><rect x="216.29" y="103.047" width="151.014" height="18.625" style="fill:#0d0d0d;"/><rect x="216.29" y="155.135" width="58.793" height="18.625" style="fill:#0d0d0d;"/><rect x="405.848" y="459.94" width="71.284" height="18.733" style="fill:#0d0d0d;"/><path id="Profile" d="M40.734,373.177c44.745,-0 84.909,-28.922 113.352,-72.049c70.377,31.747 120.997,86.607 120.997,125.944c0,29.777 -28.338,47.502 -78.044,55.78c-35.493,5.912 -77.23,7.488 -156.305,7.488l-0,-11.667c72.982,-0 111.502,-1.454 144.259,-6.911c45.874,-7.639 72.028,-17.455 72.028,-44.937c0,-36.305 -34.158,-78.468 -99.111,-107.768c-26.251,39.803 -75.878,69.959 -117.176,69.959l-0,-15.839Zm-0,-351.517c68.256,0 117.176,55.466 117.176,137.855c0,88.486 -52.307,174.6 -117.176,174.6l-0,-23.526c55.098,0 99.529,-73.146 99.529,-148.307c-0,-69.982 -41.554,-117.096 -99.529,-117.096l-0,-23.526Z"/></g></svg>