<?xml version="1.0" encoding="UTF-8" standalone="no"?><!DOCTYPE svg PUBLIC "-//W3C//DTD SVG 1.1//EN" "http://www.w3.org/Graphics/SVG/1.1/DTD/svg11.dtd"><svg width="100%" height="100%" viewBox="0 0 512 512" version="1.1" xmlns="http://www.w3.org/2000/svg" xmlns:xlink="http://www.w3.org/1999/xlink" xml:space="preserve" xmlns:serif="http://www.serif.com/" style="fill-rule:evenodd;clip-rule:evenodd;stroke-linejoin:round;stroke-miterlimit:2;"><g id="Language"><path d="M182.807,188.289l-0,-14.158l36.191,0l0,-34.914l-36.191,0l-0,-13.944l36.191,-0l0,-67.806l16.18,0l-0,205.334l-16.18,-0l0,-74.512l-36.191,-0Zm-117.729,-83.347l-0,-14.157l53.861,-0l0,-32.892l16.18,-0l0,32.892l53.968,-0l-0,14.157l-124.009,-0Zm59.929,107.936c-15.045,-0 -27.197,-4.507 -36.458,-13.519c-9.261,-9.012 -13.891,-20.189 -13.891,-33.53c0,-13.554 4.613,-24.838 13.838,-33.85c9.225,-9.012 21.395,-13.519 36.511,-13.519c15.115,0 27.285,4.507 36.511,13.519c9.225,9.012 13.838,20.296 13.838,33.85c-0,13.341 -4.631,24.518 -13.892,33.53c-9.26,9.012 -21.413,13.519 -36.457,13.519Zm-0,-80.367c-10.219,0 -18.61,3.229 -25.175,9.687c-6.564,6.457 -9.846,14.334 -9.846,23.631c0,9.225 3.282,17.049 9.846,23.471c6.565,6.422 14.956,9.633 25.175,9.633c10.289,0 18.716,-3.211 25.281,-9.633c6.564,-6.422 9.846,-14.246 9.846,-23.471c-0,-9.297 -3.265,-17.174 -9.793,-23.631c-6.529,-6.458 -14.974,-9.687 -25.334,-9.687Z" style="fill:#0d0d0d;fill-rule:nonzero;"/><text x="269.866px" y="449.135px" style="font-family:'ArialMT', 'Arial', sans-serif;font-size:268.344px;fill:#0d0d0d;">A</text><path d="M114.504,310.935l-20.693,-0l38.828,-43.263l38.828,43.263l-20.693,-0l0,50.291l50.291,-0l0,-20.693l43.263,38.828l-43.263,38.828l0,-20.693l-72.778,0c-3.792,0 -7.227,-1.534 -9.72,-4.015l-0.024,-0.024c-0,0 -0.024,-0.024 -0.024,-0.024c-2.481,-2.493 -4.015,-5.928 -4.015,-9.72l-0,-72.778Z" style="fill:#0d0d0d;"/><path d="M216.805,330.433l-0,-47.448c-0,-38.694 31.414,-70.107 70.107,-70.107l140.214,-0c38.693,-0 70.107,31.413 70.107,70.107l0,140.214c0,38.693 -31.414,70.107 -70.107,70.107l-140.214,-0c-37.397,-0 -67.994,-29.345 -70.002,-66.245l13.759,-12.349l0,1.554c0,34.868 28.308,63.175 63.175,63.175l126.35,0c34.867,0 63.175,-28.307 63.175,-63.175l-0,-126.349c-0,-34.867 -28.308,-63.175 -63.175,-63.175l-126.35,-0c-34.867,-0 -63.175,28.308 -63.175,63.175l0,52.959l-13.864,-12.443Z" style="fill:#0d0d0d;"/><path d="M172.766,286.484l50.543,-0c2.531,-0 5.028,-0.15 7.478,-0.44c-0.078,1.281 -0.118,2.572 -0.118,3.873l0,10.429l-0.428,0.002l-45.033,-0l-12.442,-13.864Zm-93.123,13.098c-33.778,-5.025 -59.723,-34.177 -59.723,-69.341l-0,-140.214c-0,-38.693 31.414,-70.107 70.107,-70.107l140.214,-0c38.693,-0 70.107,31.414 70.107,70.107l-0,136.715l-6.504,-0c-2.531,-0 -5.028,0.149 -7.478,0.439c0.078,-1.28 0.118,-2.572 0.118,-3.872l-0,-126.35c-0,-34.867 -28.308,-63.175 -63.175,-63.175l-126.35,0c-34.867,0 -63.175,28.308 -63.175,63.175l0,126.35c0,33.061 25.451,60.224 57.817,62.95l-11.958,13.323Z" style="fill:#0d0d0d;"/></g></svg>