<?xml version="1.0" encoding="UTF-8" standalone="no"?>
<!DOCTYPE svg PUBLIC "-//W3C//DTD SVG 1.1//EN" "http://www.w3.org/Graphics/SVG/1.1/DTD/svg11.dtd">
<svg width="100%" height="100%" viewBox="0 0 512 512" version="1.1" xmlns="http://www.w3.org/2000/svg" xmlns:xlink="http://www.w3.org/1999/xlink" xml:space="preserve" xmlns:serif="http://www.serif.com/" style="fill-rule:evenodd;clip-rule:evenodd;stroke-linejoin:round;stroke-miterlimit:2;">
    <g transform="matrix(1.85154,0,0,1.85154,-150.115,-344.552)">
        <path d="M166.299,300.529C204.18,300.529 234.935,331.284 234.935,369.165C234.935,407.045 204.18,437.8 166.299,437.8C128.419,437.8 97.664,407.045 97.664,369.165C97.664,331.284 128.419,300.529 166.299,300.529ZM166.299,309.689C199.125,309.689 225.775,336.339 225.775,369.165C225.775,401.99 199.125,428.64 166.299,428.64C133.474,428.64 106.824,401.99 106.824,369.165C106.824,336.339 133.474,309.689 166.299,309.689ZM155.307,358.172L155.307,341.684C155.307,335.618 160.233,330.692 166.299,330.692C172.366,330.692 177.291,335.618 177.291,341.684L177.291,358.172L193.78,358.172C199.846,358.172 204.772,363.098 204.772,369.165C204.772,375.231 199.846,380.157 193.78,380.157L177.291,380.157L177.291,396.645C177.291,402.711 172.366,407.637 166.299,407.637C160.233,407.637 155.307,402.711 155.307,396.645L155.307,380.157L138.819,380.157C132.753,380.157 127.827,375.231 127.827,369.165C127.827,363.098 132.753,358.172 138.819,358.172L155.307,358.172Z" style="fill:rgb(55,67,85);"/>
    </g>
    <g transform="matrix(1,0,0,1,28.7969,-82.1346)">
        <path d="M313.768,128.661C323.878,109.606 341.76,96.935 362.117,96.935C393.628,96.935 419.212,127.299 419.212,164.698C419.212,187.699 409.536,208.038 394.758,220.287C395.179,226.463 397.255,232.461 397.255,232.461C397.255,232.461 459.046,256.633 468.758,274.254C478.47,291.876 473.473,330.629 455.527,338.191C443.621,343.208 421.922,347.312 397.279,349.851C399.944,333.683 398.766,316.356 393.258,306.553C381.982,286.485 314.525,260.834 314.525,260.834C314.525,260.834 311.689,257.201 311.201,250.168C328.357,236.219 336.589,215.23 336.589,189.037C336.589,164.581 328.834,142.767 313.768,128.661Z" style="fill:rgb(55,67,85);"/>
    </g>
    <path d="M210.185,202.747C229.87,190.611 253.92,181.022 253.92,181.022C253.92,181.022 255.728,173.397 256.154,165.435C241.713,152.004 232.426,131.114 232.426,107.67C232.426,67.186 260.119,34.318 294.23,34.318C328.341,34.318 356.035,67.186 356.035,107.67C356.035,132.567 345.56,154.585 329.564,167.844C330.019,174.529 332.266,181.022 332.266,181.022C332.266,181.022 399.155,207.187 409.668,226.263C420.181,245.338 414.771,287.287 395.345,295.473C377.564,302.965 339.607,308.577 300.929,310.454C291.111,260.993 256.27,220.501 210.185,202.747Z" style="fill:rgb(55,67,85);"/>
</svg>
