<?xml version="1.0" encoding="UTF-8" standalone="no"?><!DOCTYPE svg PUBLIC "-//W3C//DTD SVG 1.1//EN" "http://www.w3.org/Graphics/SVG/1.1/DTD/svg11.dtd"><svg width="100%" height="100%" viewBox="0 0 70 40" version="1.1" xmlns="http://www.w3.org/2000/svg" xmlns:xlink="http://www.w3.org/1999/xlink" xml:space="preserve" xmlns:serif="http://www.serif.com/" style="fill-rule:evenodd;clip-rule:evenodd;stroke-linejoin:round;stroke-miterlimit:2;"><circle cx="19.07" cy="10" r="7.962" style="fill:url(#_Linear1);"/><path d="M26.616,15.102l0.535,0c3.154,0 5.715,2.561 5.715,5.715c0,0 -4.581,17.145 -7.736,17.145l-11.582,0c-3.154,0 -8.275,-17.145 -8.275,-17.145c0,-3.154 2.561,-5.715 5.715,-5.715l0.535,0c1.063,3.149 4.042,5.418 7.547,5.418c3.505,0 6.484,-2.269 7.546,-5.418Z" style="fill:url(#_Linear2);"/><path d="M55.453,25.82l-9.273,-11.64l18.547,0l-9.274,11.64Z" style="fill:url(#_Linear3);"/><defs><linearGradient id="_Linear1" x1="0" y1="0" x2="1" y2="0" gradientUnits="userSpaceOnUse" gradientTransform="matrix(55.8721,0,0,30.6694,5.27325,17.3725)"><stop offset="0" style="stop-color:#0081d5;stop-opacity:1"/><stop offset="1" style="stop-color:#a133d5;stop-opacity:1"/></linearGradient><linearGradient id="_Linear2" x1="0" y1="0" x2="1" y2="0" gradientUnits="userSpaceOnUse" gradientTransform="matrix(55.8721,0,0,30.6694,5.27325,22.6275)"><stop offset="0" style="stop-color:#0081d5;stop-opacity:1"/><stop offset="1" style="stop-color:#a133d5;stop-opacity:1"/></linearGradient><linearGradient id="_Linear3" x1="0" y1="0" x2="1" y2="0" gradientUnits="userSpaceOnUse" gradientTransform="matrix(-55.8721,-6.84236e-15,3.75592e-15,-30.6694,102.052,16.4907)"><stop offset="0" style="stop-color:#0081d5;stop-opacity:1"/><stop offset="1" style="stop-color:#a133d5;stop-opacity:1"/></linearGradient></defs></svg>