<?xml version="1.0" encoding="UTF-8" standalone="no"?><!DOCTYPE svg PUBLIC "-//W3C//DTD SVG 1.1//EN" "http://www.w3.org/Graphics/SVG/1.1/DTD/svg11.dtd"><svg width="100%" height="100%" viewBox="0 0 512 512" version="1.1" xmlns="http://www.w3.org/2000/svg" xmlns:xlink="http://www.w3.org/1999/xlink" xml:space="preserve" xmlns:serif="http://www.serif.com/" style="fill-rule:evenodd;clip-rule:evenodd;stroke-linejoin:round;stroke-miterlimit:2;"><g id="vk"><path d="M512,128c-0,-70.645 -57.355,-128 -128,-128l-256,0c-70.645,0 -128,57.355 -128,128l0,256c0,70.645 57.355,128 128,128l256,0c70.645,0 128,-57.355 128,-128l-0,-256Z" style="fill:#4a76a8;"/><path d="M45.617,132.106l76.36,0c20.976,76.1 56.284,136.344 94.419,144.229l-0,-104.722l-18.678,-33.979c0,-0 -1.283,-2.265 -0.876,-3.716c0.517,-1.845 3.21,-1.812 3.21,-1.812l88.826,0l4.877,9.836l0,114.058l11.92,0c35.767,-35.699 64.119,-76.4 82.398,-123.894l65.451,0l10.763,15.363c-20.083,42.461 -72.433,107.442 -72.433,116.94c0,13.994 68.028,86.224 73.472,94.835c2.621,4.145 -0.457,20.65 -0.457,20.65l-72.537,-0l-75.358,-72.568l-23.219,-0l0,72.568l-77.359,-0c-95.082,-57.437 -155.598,-136.826 -170.779,-247.788Z" style="fill:#f2f2f2;"/></g></svg>