<?xml version="1.0" encoding="UTF-8" standalone="no"?><!DOCTYPE svg PUBLIC "-//W3C//DTD SVG 1.1//EN" "http://www.w3.org/Graphics/SVG/1.1/DTD/svg11.dtd"><svg width="100%" height="100%" viewBox="0 0 512 512" version="1.1" xmlns="http://www.w3.org/2000/svg" xmlns:xlink="http://www.w3.org/1999/xlink" xml:space="preserve" xmlns:serif="http://www.serif.com/" style="fill-rule:evenodd;clip-rule:evenodd;stroke-linejoin:round;stroke-miterlimit:2;"><g id="Link"><path d="M512,128c-0,-70.645 -57.355,-128 -128,-128l-256,0c-70.645,0 -128,57.355 -128,128l0,256c0,70.645 57.355,128 128,128l256,0c70.645,0 128,-57.355 128,-128l-0,-256Z" style="fill:url(#_Linear1);"/><path id="Link-Icon" serif:id="Link Icon" d="M450.768,186.884l-75.394,75.396c-20.82,20.817 -54.574,20.817 -75.394,-0l28.616,-28.62c11.835,3.127 24.934,0.199 34.212,-9.076l50.262,-50.267c13.88,-13.878 13.88,-36.385 0,-50.258l-25.131,-25.134c-13.88,-13.882 -36.383,-13.882 -50.263,0l-50.262,50.263c-9.278,9.279 -12.206,22.38 -9.079,34.209l-28.618,28.615c-20.819,-20.816 -20.819,-54.569 -0,-75.386l75.394,-75.396c20.82,-20.817 54.575,-20.817 75.394,-0l50.263,50.257c20.82,20.827 20.82,54.58 0,75.397Zm-263.879,138.225c-6.94,-6.944 -6.94,-18.195 0,-25.133l113.091,-113.092c6.94,-6.939 18.191,-6.939 25.131,-0c6.94,6.943 6.94,18.194 -0,25.128l-113.091,113.097c-6.94,6.939 -18.192,6.939 -25.131,0Zm-37.697,-37.7l-50.264,50.267c-13.878,13.878 -13.878,36.38 0,50.258l25.133,25.133c13.88,13.878 36.383,13.878 50.261,0l50.264,-50.262c9.278,-9.28 12.206,-22.381 9.079,-34.214l28.618,-28.615c20.819,20.821 20.819,54.574 0,75.391l-75.394,75.396c-20.82,20.817 -54.575,20.817 -75.394,0l-50.263,-50.262c-20.82,-20.822 -20.82,-54.575 -0,-75.392l75.394,-75.396c20.82,-20.817 54.574,-20.817 75.394,-0l-28.616,28.62c-11.835,-3.127 -24.934,-0.199 -34.212,9.076Z" style="fill:#f2f2f2;"/></g><defs><linearGradient id="_Linear1" x1="0" y1="0" x2="1" y2="0" gradientUnits="userSpaceOnUse" gradientTransform="matrix(3.1351e-14,-512,512,3.1351e-14,256,512)"><stop offset="0" style="stop-color:#cc3557;stop-opacity:1"/><stop offset="1" style="stop-color:#fb9249;stop-opacity:1"/></linearGradient></defs></svg>