<?xml version="1.0" encoding="UTF-8" standalone="no"?><!DOCTYPE svg PUBLIC "-//W3C//DTD SVG 1.1//EN" "http://www.w3.org/Graphics/SVG/1.1/DTD/svg11.dtd"><svg width="100%" height="100%" viewBox="0 0 512 512" version="1.1" xmlns="http://www.w3.org/2000/svg" xmlns:xlink="http://www.w3.org/1999/xlink" xml:space="preserve" xmlns:serif="http://www.serif.com/" style="fill-rule:evenodd;clip-rule:evenodd;stroke-linecap:round;stroke-linejoin:round;stroke-miterlimit:1.5;"><g id="spotify"><path d="M512,128c-0,-70.645 -57.355,-128 -128,-128l-256,0c-70.645,0 -128,57.355 -128,128l0,256c0,70.645 57.355,128 128,128l256,0c70.645,0 128,-57.355 128,-128l-0,-256Z" style="fill:#1ed760;"/><g><path d="M101.357,357.315c105.756,-19.784 183.113,-14.316 262.841,29.643" style="fill:none;stroke:#f2f2f2;stroke-width:37.21px;"/><path d="M93.227,269.07c112.616,-25.268 213.072,-15.252 308.358,40.886" style="fill:none;stroke:#f2f2f2;stroke-width:45.39px;"/><path d="M77.192,174.103c139.171,-35.212 248.599,-23.717 356.563,37.35" style="fill:none;stroke:#f2f2f2;stroke-width:56.79px;"/></g></g></svg>