<?xml version="1.0" encoding="UTF-8" standalone="no"?><!DOCTYPE svg PUBLIC "-//W3C//DTD SVG 1.1//EN" "http://www.w3.org/Graphics/SVG/1.1/DTD/svg11.dtd"><svg width="100%" height="100%" viewBox="0 0 512 512" version="1.1" xmlns="http://www.w3.org/2000/svg" xmlns:xlink="http://www.w3.org/1999/xlink" xml:space="preserve" xmlns:serif="http://www.serif.com/" style="fill-rule:evenodd;clip-rule:evenodd;stroke-linejoin:round;stroke-miterlimit:2;"><g id="youtube"><path d="M512,128c-0,-70.645 -57.355,-128 -128,-128l-256,0c-70.645,0 -128,57.355 -128,128l0,256c0,70.645 57.355,128 128,128l256,0c70.645,0 128,-57.355 128,-128l-0,-256Z" style="fill:#f00;"/><path d="M442.656,204.514c0,-39.738 -32.262,-72 -72,-72l-208.461,0c-39.738,0 -72,32.262 -72,72l-0,109.68c-0,39.738 32.262,72 72,72l208.461,0c39.738,0 72,-32.262 72,-72l0,-109.68Zm-211.285,-0.824l-0,111.871l91.934,-55.482l-91.934,-56.389Z" style="fill:#f2f2f2;"/></g></svg>