<?xml version="1.0" encoding="UTF-8" standalone="no"?><!DOCTYPE svg PUBLIC "-//W3C//DTD SVG 1.1//EN" "http://www.w3.org/Graphics/SVG/1.1/DTD/svg11.dtd"><svg width="100%" height="100%" viewBox="0 0 512 512" version="1.1" xmlns="http://www.w3.org/2000/svg" xmlns:xlink="http://www.w3.org/1999/xlink" xml:space="preserve" xmlns:serif="http://www.serif.com/" style="fill-rule:evenodd;clip-rule:evenodd;stroke-linejoin:round;stroke-miterlimit:2;"><g id="instagram"><path d="M512,128c-0,-70.645 -57.355,-128 -128,-128l-256,0c-70.645,0 -128,57.355 -128,128l0,256c0,70.645 57.355,128 128,128l256,0c70.645,0 128,-57.355 128,-128l-0,-256Z" style="fill:url(#_Linear1);"/><path id="Instagram-Icon" serif:id="Instagram Icon" d="M400.647,466.383l-289.283,-0c-36.309,-0 -65.747,-29.429 -65.747,-65.74l0,-289.281c0,-36.316 29.438,-65.745 65.747,-65.745l289.283,0c36.309,0 65.744,29.429 65.744,65.745l-0,289.281c-0,36.311 -29.435,65.74 -65.744,65.74Zm-144.644,-280.507c-38.73,-0 -70.126,31.397 -70.126,70.119c0,38.732 31.396,70.134 70.126,70.134c38.731,0 70.13,-31.402 70.13,-70.134c0,-38.722 -31.399,-70.119 -70.13,-70.119Zm157.792,-61.362c-0,-14.527 -11.777,-26.299 -26.298,-26.299l-17.532,0c-14.526,0 -26.3,11.772 -26.3,26.299l0,17.522c0,14.527 11.774,26.304 26.3,26.304l17.532,-0c14.521,-0 26.298,-11.777 26.298,-26.304l-0,-17.522Zm-0,96.419l-40.765,-0c3.352,11.179 5.699,22.8 5.699,35.062c0,67.782 -54.945,122.732 -122.726,122.732c-67.779,0 -122.725,-54.95 -122.725,-122.732c0,-12.262 2.348,-23.883 5.703,-35.062l-40.767,-0l0,166.567c0,14.518 11.773,26.29 26.298,26.29l262.985,-0c14.521,-0 26.298,-11.772 26.298,-26.29l-0,-166.567Z" style="fill:#f2f2f2;"/></g><defs><linearGradient id="_Linear1" x1="0" y1="0" x2="1" y2="0" gradientUnits="userSpaceOnUse" gradientTransform="matrix(440.094,-435.537,435.537,440.094,26.8796,466.383)"><stop offset="0" style="stop-color:#f3b562;stop-opacity:1"/><stop offset="0.5" style="stop-color:#cc406c;stop-opacity:1"/><stop offset="1" style="stop-color:#9d2aaf;stop-opacity:1"/></linearGradient></defs></svg>