<?xml version="1.0" encoding="UTF-8" standalone="no"?><!DOCTYPE svg PUBLIC "-//W3C//DTD SVG 1.1//EN" "http://www.w3.org/Graphics/SVG/1.1/DTD/svg11.dtd"><svg width="100%" height="100%" viewBox="0 0 512 512" version="1.1" xmlns="http://www.w3.org/2000/svg" xmlns:xlink="http://www.w3.org/1999/xlink" xml:space="preserve" xmlns:serif="http://www.serif.com/" style="fill-rule:evenodd;clip-rule:evenodd;stroke-linejoin:round;stroke-miterlimit:2;"><g id="pinterest-" serif:id="pinterest "><path d="M512,128c-0,-70.645 -57.355,-128 -128,-128l-256,0c-70.645,0 -128,57.355 -128,128l0,256c0,70.645 57.355,128 128,128l256,0c70.645,0 128,-57.355 128,-128l-0,-256Z" style="fill:#e60023;"/><path id="Pinterest-Icon" serif:id="Pinterest Icon" d="M266.612,45.617c-123.589,0 -185.901,82.326 -185.901,150.976c0,41.566 16.938,78.559 53.268,92.337c5.955,2.264 11.292,0.077 13.02,-6.056c1.205,-4.238 4.045,-14.934 5.316,-19.386c1.741,-6.065 1.064,-8.193 -3.743,-13.471c-10.477,-11.489 -17.17,-26.345 -17.17,-47.408c0,-61.069 49.184,-115.747 128.071,-115.747c69.852,0 108.231,39.657 108.231,92.619c-0,69.69 -33.19,128.499 -82.467,128.499c-27.214,0 -47.583,-20.902 -41.051,-46.552c7.816,-30.612 22.96,-63.659 22.96,-85.757c-0,-19.794 -11.427,-36.283 -35.079,-36.283c-27.821,-0 -50.168,26.738 -50.168,62.551c0,22.812 8.297,38.242 8.297,38.242c0,-0 -28.467,112.077 -33.459,131.706c-9.939,39.078 -1.494,86.996 -0.778,91.836c0.418,2.868 4.384,3.553 6.179,1.385c2.566,-3.115 35.7,-41.119 46.963,-79.084c3.186,-10.755 18.296,-66.434 18.296,-66.434c9.038,16.013 35.454,30.122 63.542,30.122c83.62,-0 140.35,-70.837 140.35,-165.633c-0,-71.707 -65.352,-138.462 -164.677,-138.462Z" style="fill:#f2f2f2;fill-rule:nonzero;"/></g></svg>