<?xml version="1.0" encoding="UTF-8" standalone="no"?><!DOCTYPE svg PUBLIC "-//W3C//DTD SVG 1.1//EN" "http://www.w3.org/Graphics/SVG/1.1/DTD/svg11.dtd"><svg width="100%" height="100%" viewBox="0 0 512 512" version="1.1" xmlns="http://www.w3.org/2000/svg" xmlns:xlink="http://www.w3.org/1999/xlink" xml:space="preserve" xmlns:serif="http://www.serif.com/" style="fill-rule:evenodd;clip-rule:evenodd;stroke-linejoin:round;stroke-miterlimit:2;"><g id="ok"><path d="M512,128c-0,-70.645 -57.355,-128 -128,-128l-256,0c-70.645,0 -128,57.355 -128,128l0,256c0,70.645 57.355,128 128,128l256,0c70.645,0 128,-57.355 128,-128l-0,-256Z" style="fill:#ec7f2a;"/><path d="M253.209,399.915c-12.455,12.186 -62.506,61.044 -66.232,62.918c-27.11,13.637 -54.08,-14.595 -43.489,-40.824c1.49,-3.689 67.084,-71.149 67.084,-71.149c-25.649,-6.39 -61.516,-21.206 -69.917,-33.992c-16.065,-24.452 -0.545,-54.914 32.492,-49.821c8.338,1.285 25.172,20.873 82.853,26.327l1.344,-0.131c56.599,-5.627 73.236,-24.921 81.509,-26.196c33.037,-5.093 48.557,25.369 32.492,49.821c-8.401,12.786 -44.268,27.602 -69.917,33.992c-0,-0 65.594,67.46 67.084,71.149c10.591,26.229 -16.379,54.461 -43.489,40.824c-4.258,-2.142 -69.023,-65.651 -69.023,-65.651l-2.791,2.733Zm2.791,-354.298c59.913,0 108.555,48.642 108.555,108.555c0,59.914 -48.642,108.556 -108.555,108.556c-59.913,-0 -108.555,-48.642 -108.555,-108.556c-0,-59.913 48.642,-108.555 108.555,-108.555Zm-0,63.128c25.072,-0 45.428,20.355 45.428,45.427c-0,25.073 -20.356,45.428 -45.428,45.428c-25.072,0 -45.428,-20.355 -45.428,-45.428c0,-25.072 20.356,-45.427 45.428,-45.427Z" style="fill:#f2f2f2;"/></g></svg>