<?xml version="1.0" encoding="UTF-8" standalone="no"?><!DOCTYPE svg PUBLIC "-//W3C//DTD SVG 1.1//EN" "http://www.w3.org/Graphics/SVG/1.1/DTD/svg11.dtd"><svg width="100%" height="100%" viewBox="0 0 512 512" version="1.1" xmlns="http://www.w3.org/2000/svg" xmlns:xlink="http://www.w3.org/1999/xlink" xml:space="preserve" xmlns:serif="http://www.serif.com/" style="fill-rule:evenodd;clip-rule:evenodd;stroke-linejoin:round;stroke-miterlimit:2;"><g id="Twitter-" serif:id="Twitter "><path d="M512,128c-0,-70.645 -57.355,-128 -128,-128l-256,0c-70.645,0 -128,57.355 -128,128l0,256c0,70.645 57.355,128 128,128l256,0c70.645,0 128,-57.355 128,-128l-0,-256Z" style="fill:#1da1f2;"/><path id="Twitter-Icon" serif:id="Twitter Icon" d="M423.328,167.915c0.16,3.798 0.216,7.611 0.216,11.458c0,117.108 -86.821,252.148 -245.601,252.148c-48.768,0 -94.113,-14.639 -132.326,-39.837c6.752,0.842 13.608,1.231 20.578,1.231c40.443,-0 77.674,-14.138 107.231,-37.94c-37.778,-0.662 -69.673,-26.312 -80.669,-61.514c5.28,1.051 10.723,1.615 16.275,1.615c7.839,-0 15.458,-1.109 22.753,-3.118c-39.516,-8.161 -69.291,-43.98 -69.291,-86.886l0,-1.114c11.647,6.585 24.983,10.607 39.136,11.06c-23.187,-15.928 -38.429,-43.023 -38.429,-73.755c-0,-16.259 4.244,-31.453 11.703,-44.579c42.565,53.635 106.201,88.885 177.939,92.635c-1.472,-6.488 -2.23,-13.307 -2.23,-20.227c-0,-48.942 38.645,-88.613 86.331,-88.613c24.818,-0 47.245,10.777 62.978,27.989c19.701,-3.969 38.156,-11.337 54.867,-21.506c-6.481,20.665 -20.141,38.042 -37.997,48.995c17.474,-2.067 34.132,-6.873 49.591,-13.915c-11.594,17.767 -26.185,33.354 -43.055,45.873Z" style="fill:#f2f2f2;"/></g></svg>